<?xml version="1.0" encoding="utf-8"?>
<!-- Generator: Adobe Illustrator 19.0.0, SVG Export Plug-In . SVG Version: 6.00 Build 0)  -->
<svg version="1.1" id="Layer_1" xmlns="http://www.w3.org/2000/svg" xmlns:xlink="http://www.w3.org/1999/xlink" x="0px" y="0px"
	 viewBox="157 347 100 100" style="enable-background:new 157 347 100 100;" xml:space="preserve">
<style type="text/css">
	.st0{fill:#E1ACDA;}
	.st1{fill:#242424;}
</style>
<circle id="XMLID_29_" class="st0" cx="207" cy="397" r="50"/>
<g id="XMLID_16_">
	<path id="XMLID_64_" class="st1" d="M207,379c-2.5,0-4.5,2-4.5,4.5c0,2.5,2,4.5,4.5,4.5s4.5-2,4.5-4.5C211.5,381,209.5,379,207,379
		z"/>
	<path id="XMLID_73_" class="st1" d="M207,371.6c-6.6,0-11.9,5.3-11.9,11.9c0,2.3,0.6,4.4,1.8,6.3l10.1,16.1l10.1-16.1
		c1.2-1.9,1.8-4.1,1.8-6.3C218.9,376.9,213.6,371.6,207,371.6z M207,390.9c-4.1,0-7.4-3.3-7.4-7.4c0-4.1,3.3-7.4,7.4-7.4
		s7.4,3.3,7.4,7.4C214.4,387.6,211.1,390.9,207,390.9z"/>
	<path id="XMLID_61_" class="st1" d="M199.8,422.4h14.5l-1.1-9h-12.2L199.8,422.4z"/>
	<path id="XMLID_60_" class="st1" d="M201.2,410.4h5.1l-4.2-6.7L201.2,410.4z"/>
	<path id="XMLID_59_" class="st1" d="M215.7,410.4h11.7l-3.7-8.9h-9.2L215.7,410.4z"/>
	<path id="XMLID_58_" class="st1" d="M186.5,410.4h11.7l1.1-8.9h-9.1L186.5,410.4z"/>
	<path id="XMLID_57_" class="st1" d="M207.7,410.4h5l-0.8-6.6L207.7,410.4z"/>
	<path id="XMLID_56_" class="st1" d="M197.9,413.4h-12.6l-3.7,9h15.2L197.9,413.4z"/>
	<path id="XMLID_55_" class="st1" d="M228.7,413.4h-12.6l1.1,9h15.2L228.7,413.4z"/>
</g>
</svg>
