<?xml version="1.0" encoding="utf-8"?>
<!-- Generator: Adobe Illustrator 19.0.0, SVG Export Plug-In . SVG Version: 6.00 Build 0)  -->
<svg version="1.1" id="Capa_1" xmlns="http://www.w3.org/2000/svg" xmlns:xlink="http://www.w3.org/1999/xlink" x="0px" y="0px"
	 viewBox="-329.4 347.4 100 100" style="enable-background:new -329.4 347.4 100 100;" xml:space="preserve">
<style type="text/css">
	.st0{fill:#180330;}
	.st1{fill:#E1ACDA;}
</style>
<g id="XMLID_81_">
	<circle id="XMLID_93_" class="st0" cx="-279.4" cy="398" r="50"/>
	<g id="XMLID_154_">
		<path id="XMLID_152_" class="st1" d="M-272,372.4c-0.2,0.2-0.4,0.5-0.5,0.8l0.1,0C-272.4,372.9-272.2,372.6-272,372.4z"/>
		<path id="XMLID_151_" class="st1" d="M-283.7,424.1h30.4v-4.6h-23.8C-278.9,421.6-281.2,423.2-283.7,424.1z"/>
		<path id="XMLID_150_" class="st1" d="M-253.4,418v-4.6H-274c-0.4,1.7-1.1,3.2-2,4.6H-253.4z"/>
		<path id="XMLID_149_" class="st1" d="M-273.5,409.6c0,0.7-0.1,1.3-0.1,2c8.3,0,17.5,0,17.7,0c0.5,0,0.6-1.8,0.6-1.8
			c0.7-6-2.3-11.5-2.3-11.5c-0.9-2-6.3-3.7-6.3-3.7c-2.9-1-2.9-2-2.9-2c-5.7,11.2-10,0-10,0c-0.3,1.2-4.1,2.6-5.6,3.1
			C-277.2,398.1-273.5,403.4-273.5,409.6z"/>
		<path id="XMLID_158_" class="st1" d="M-278.2,386.6c0.4,3.6,3.5,7.3,6.3,7.3c3.2,0,6.3-3.9,6.8-7.3c0.2-0.1,0.5-0.4,0.6-1.2
			c0,0,0.7-2.5-0.2-2.2c0.3-1,1.4-4.7-0.7-7c0,0-1-1.3-3.3-2c-0.1-0.1-0.2-0.1-0.3-0.2c0,0,0,0.1,0.1,0.2c-0.1,0-0.3-0.1-0.4-0.1
			c-0.1-0.1-0.3-0.3-0.4-0.4c0,0,0.1,0.1,0.3,0.4c-0.1,0-0.1,0-0.2,0c-0.1-0.2-0.2-0.3-0.4-0.5c0,0,0.1,0.1,0.2,0.3
			c-0.4-0.3-1.3-1-1.3-1.9c0,0-0.5,0.2-0.9,0.7c0.1-0.4,0.3-0.7,0.7-1c0,0-0.4,0.2-0.7,0.6c-0.3,0.1-0.8,0.5-1,1.2l-0.2-0.1
			c0.1-0.2,0.2-0.4,0.4-0.6c0,0-0.3,0.2-0.5,0.6l-0.4-0.2c0.1-0.2,0.3-0.4,0.5-0.6c0,0-0.2,0.2-0.4,0.4c0.1-0.2,0.1-0.5-0.7,0.3
			c0,0-3.4,1.5-4.4,4.5c0,0-0.6,1.4,0.2,5.4c-1.1-0.5-0.3,2.1-0.3,2.1C-278.7,386.1-278.4,386.4-278.2,386.6z M-272,372.4
			c-0.2,0.2-0.3,0.5-0.4,0.9l-0.1,0C-272.4,372.9-272.3,372.7-272,372.4z"/>
		<path id="XMLID_155_" class="st1" d="M-276,409.6c0-8.1-6.6-14.7-14.7-14.7c-8.1,0-14.7,6.6-14.7,14.7c0,8.1,6.6,14.7,14.7,14.7
			C-282.6,424.3-276,417.7-276,409.6z M-295.9,418.1c-0.4-1.5,0.9-3.1,2.8-3.6c0.9-0.2,1.7-0.2,2.4,0.1v-16.5c0,0,0.1-0.7,1.1-0.8
			c0,0,0,0.8,5,4.3c2.6,2,2.6,4.7,2.6,4.7c-3.3-5.2-6.7-5-6.7-5l0,15.6h0c0,1.3-1.2,2.6-2.9,3C-293.7,420.4-295.7,419.5-295.9,418.1
			z"/>
	</g>
</g>
</svg>
