<?xml version="1.0" encoding="utf-8"?>
<!-- Generator: Adobe Illustrator 19.0.0, SVG Export Plug-In . SVG Version: 6.00 Build 0)  -->
<svg version="1.1" id="Capa_1" xmlns="http://www.w3.org/2000/svg" xmlns:xlink="http://www.w3.org/1999/xlink" x="0px" y="0px"
	 viewBox="-329.4 347.4 100 100" style="enable-background:new -329.4 347.4 100 100;" xml:space="preserve">
<style type="text/css">
	.st0{fill:#E1ACDA;}
	.st1{fill:#242424;}
</style>
<circle id="XMLID_198_" class="st0" cx="-279.4" cy="398" r="50"/>
<g id="XMLID_252_">
	<path id="XMLID_224_" class="st1" d="M-263.4,384c-0.2-0.2-0.5-0.3-0.8-0.3h-6.2c-0.4-2-1.2-3.8-2.3-5.2h8.5c0.3,0,0.6-0.1,0.8-0.3
		c0.2-0.2,0.3-0.5,0.3-0.8v-3.7c0-0.3-0.1-0.6-0.3-0.8c-0.2-0.2-0.5-0.3-0.8-0.3h-30.2c-0.3,0-0.6,0.1-0.8,0.3
		c-0.2,0.2-0.3,0.5-0.3,0.8v4.8c0,0.3,0.1,0.6,0.3,0.8s0.5,0.3,0.8,0.3h5.3c5.1,0,8.4,1.4,9.7,4.1h-15c-0.3,0-0.6,0.1-0.8,0.3
		c-0.2,0.2-0.3,0.5-0.3,0.8v3.7c0,0.3,0.1,0.6,0.3,0.8c0.2,0.2,0.5,0.3,0.8,0.3h15.5c-0.5,2-1.8,3.5-3.7,4.5c-1.9,1-4.5,1.6-7.7,1.6
		h-4.1c-0.3,0-0.6,0.1-0.8,0.3c-0.2,0.2-0.3,0.5-0.3,0.8v4.6c0,0.3,0.1,0.6,0.3,0.8c4.6,4.9,10.7,11.9,18.1,20.7
		c0.2,0.3,0.5,0.4,0.9,0.4h7.1c0.5,0,0.9-0.2,1.1-0.7c0.2-0.4,0.2-0.8-0.1-1.2c-7.1-8.7-12.6-15.2-16.7-19.5c4.1-0.5,7.5-1.8,10-4
		c2.6-2.2,4.1-5,4.7-8.5h6.1c0.3,0,0.6-0.1,0.8-0.3c0.2-0.2,0.3-0.5,0.3-0.8v-3.7C-263.1,384.5-263.2,384.2-263.4,384z"/>
</g>
</svg>
