<?xml version="1.0" encoding="utf-8"?>
<!-- Generator: Adobe Illustrator 19.0.0, SVG Export Plug-In . SVG Version: 6.00 Build 0)  -->
<svg version="1.1" id="Capa_1" xmlns="http://www.w3.org/2000/svg" xmlns:xlink="http://www.w3.org/1999/xlink" x="0px" y="0px"
	 viewBox="-329.4 347.4 100 100" style="enable-background:new -329.4 347.4 100 100;" xml:space="preserve">
<style type="text/css">
	.st0{fill:#E1ACDA;}
	.st1{fill:#242424;}
</style>
<g id="XMLID_366_">
	<circle id="XMLID_188_" class="st0" cx="-279.4" cy="397.4" r="50"/>
	<g id="XMLID_315_">
		<path id="XMLID_316_" class="st1" d="M-283.1,371.3h-20.4c-1.1,0-2,0.9-2,2v20.4c0,1.1,0.9,2,2,2h20.4c1.1,0,2-0.9,2-2v-20.4
			C-281,372.2-282,371.3-283.1,371.3z M-285.1,391.7h-16.3v-16.3h16.3V391.7z M-254.6,399.2c-0.8-0.3-1.6-0.1-2.2,0.4l-20.4,20.4
			c-0.6,0.6-0.8,1.5-0.4,2.2c0.3,0.8,1.1,1.3,1.9,1.3h20.4c1.1,0,2-0.9,2-2v-20.4C-253.3,400.3-253.8,399.5-254.6,399.2z
			 M-257.4,419.5h-13.4l13.4-13.4V419.5z M-265.5,395.8c6.8,0,12.2-5.5,12.2-12.2c0-6.8-5.5-12.2-12.2-12.2
			c-6.8,0-12.2,5.5-12.2,12.2C-277.8,390.3-272.3,395.8-265.5,395.8z M-265.5,375.4c4.5,0,8.2,3.7,8.2,8.2c0,4.5-3.7,8.2-8.2,8.2
			c-4.5,0-8.2-3.7-8.2-8.2C-273.7,379-270,375.4-265.5,375.4z M-281.6,402.5l-8.8,8.8l8.8,8.8c0.8,0.8,0.8,2.1,0,2.9
			c-0.8,0.8-2.1,0.8-2.9,0l-8.8-8.8l-8.8,8.8c-0.8,0.8-2.1,0.8-2.9,0c-0.8-0.8-0.8-2.1,0-2.9l8.8-8.8l-8.8-8.8
			c-0.8-0.8-0.8-2.1,0-2.9c0.8-0.8,2.1-0.8,2.9,0l8.8,8.8l8.8-8.8c0.8-0.8,2.1-0.8,2.9,0C-280.8,400.4-280.8,401.7-281.6,402.5z"/>
	</g>
</g>
</svg>
