<?xml version="1.0" encoding="utf-8"?>
<!-- Generator: Adobe Illustrator 19.0.0, SVG Export Plug-In . SVG Version: 6.00 Build 0)  -->
<svg version="1.1" id="Layer_1" xmlns="http://www.w3.org/2000/svg" xmlns:xlink="http://www.w3.org/1999/xlink" x="0px" y="0px"
	 viewBox="0 0 512 512" style="enable-background:new 0 0 512 512;" xml:space="preserve">
<style type="text/css">
	.st0{fill:#DDACCF;}
	.st1{fill:#321E5C;}
</style>
<circle id="XMLID_1_" class="st0" cx="256" cy="256" r="256"/>
<path id="XMLID_3_" class="st1" d="M310.3,256l101.8-101.8c11.3-11.3,11.3-29.5,0-40.7l-13.6-13.6c-11.3-11.3-29.5-11.3-40.7,0
	L256,201.7L154.2,99.9c-11.3-11.3-29.5-11.3-40.7,0l-13.6,13.6c-11.3,11.3-11.3,29.5,0,40.7L201.7,256L99.9,357.8
	c-11.3,11.3-11.3,29.5,0,40.7l13.6,13.6c11.3,11.3,29.5,11.3,40.7,0L256,310.3l101.8,101.8c11.3,11.3,29.5,11.3,40.7,0l13.6-13.6
	c11.3-11.3,11.3-29.5,0-40.7L310.3,256z"/>
</svg>
