<?xml version="1.0" encoding="utf-8"?>
<!-- Generator: Adobe Illustrator 19.0.0, SVG Export Plug-In . SVG Version: 6.00 Build 0)  -->
<svg version="1.1" id="Capa_1" xmlns="http://www.w3.org/2000/svg" xmlns:xlink="http://www.w3.org/1999/xlink" x="0px" y="0px"
	 viewBox="-329.4 347.4 100 100" style="enable-background:new -329.4 347.4 100 100;" xml:space="preserve">
<style type="text/css">
	.st0{fill:#E1ACDA;}
	.st1{fill:#242424;}
</style>
<g id="XMLID_429_">
	<circle id="XMLID_378_" class="st0" cx="-279.4" cy="397.4" r="50"/>
	<g id="XMLID_411_">
		<g id="XMLID_414_">
			<path id="XMLID_409_" class="st1" d="M-256.1,370.2h-46.6c-2.2,0-4,1.8-4,4v5.7c0,2.2,1.8,4,4,4h46.6c2.2,0,4-1.8,4-4v-5.7
				C-252.2,371.9-253.9,370.2-256.1,370.2z"/>
			<path id="XMLID_408_" class="st1" d="M-305,396.3h32.9c0.9,0,1.7-0.8,1.7-1.7s-0.8-1.7-1.7-1.7H-305c-0.9,0-1.7,0.8-1.7,1.7
				S-305.9,396.3-305,396.3z"/>
			<path id="XMLID_407_" class="st1" d="M-305,403.1h32.9c0.9,0,1.7-0.8,1.7-1.7s-0.8-1.7-1.7-1.7H-305c-0.9,0-1.7,0.8-1.7,1.7
				S-305.9,403.1-305,403.1z"/>
			<path id="XMLID_406_" class="st1" d="M-305,416.7h32.9c0.9,0,1.7-0.8,1.7-1.7s-0.8-1.7-1.7-1.7H-305c-0.9,0-1.7,0.8-1.7,1.7
				S-305.9,416.7-305,416.7z"/>
			<path id="XMLID_405_" class="st1" d="M-305,423.5h32.9c0.9,0,1.7-0.8,1.7-1.7c0-0.9-0.8-1.7-1.7-1.7H-305c-0.9,0-1.7,0.8-1.7,1.7
				C-306.7,422.8-305.9,423.5-305,423.5z"/>
		</g>
		<circle id="XMLID_404_" class="st1" cx="-259" cy="397.4" r="6.8"/>
		<circle id="XMLID_368_" class="st1" cx="-259" cy="417.9" r="6.8"/>
	</g>
</g>
</svg>
