<?xml version="1.0" encoding="utf-8"?>
<!-- Generator: Adobe Illustrator 19.0.0, SVG Export Plug-In . SVG Version: 6.00 Build 0)  -->
<svg version="1.1" id="Capa_1" xmlns="http://www.w3.org/2000/svg" xmlns:xlink="http://www.w3.org/1999/xlink" x="0px" y="0px"
	 viewBox="-329.4 347.4 100 100" style="enable-background:new -329.4 347.4 100 100;" xml:space="preserve">
<style type="text/css">
	.st0{fill:#E1ACDA;}
	.st1{fill:#242424;}
</style>
<g id="XMLID_491_">
	<g id="XMLID_433_">
		<circle id="XMLID_443_" class="st0" cx="-279.4" cy="397.4" r="50"/>
	</g>
	<g id="XMLID_470_">
		<g id="XMLID_474_">
			<g id="XMLID_475_">
				<path id="XMLID_431_" class="st1" d="M-295.6,368.7h-7.5c-3.4,0-6.2,2.8-6.2,6.2v20c0,3.4,2.8,6.2,6.2,6.2h11.2V370
					C-293,369.2-294.2,368.7-295.6,368.7z"/>
			</g>
		</g>
		<g id="XMLID_471_">
			<g id="XMLID_472_">
				<path id="XMLID_430_" class="st1" d="M-249.4,391.8c0-2.2-1.2-4.1-3.1-5c0.4-0.8,0.6-1.6,0.6-2.5c0-2.2-1.2-4.1-3.1-5
					c0.6-1.1,0.7-2.5,0.5-3.8c-0.6-2.5-2.9-4.4-5.7-4.4h-22.9c-1.6,0-4.2,0.5-6.2,1.5v26.8l0.3,0.2l7.2,15.6v8.5
					c0,0.4,0.2,0.7,0.5,1c0.1,0.1,1.9,1.5,4.5,1.5c2.9,0,7.5-4.6,7.5-10c0-3.4-1.2-7.7-2-10h15.4c3.4,0,6.2-2.5,6.5-5.7
					c0.2-1.8-0.4-3.5-1.6-4.8C-250,394.7-249.4,393.3-249.4,391.8z"/>
			</g>
		</g>
	</g>
</g>
</svg>
