<?xml version="1.0" encoding="utf-8"?>
<!-- Generator: Adobe Illustrator 19.0.0, SVG Export Plug-In . SVG Version: 6.00 Build 0)  -->
<svg version="1.1" id="Layer_1" xmlns="http://www.w3.org/2000/svg" xmlns:xlink="http://www.w3.org/1999/xlink" x="0px" y="0px"
	 viewBox="157 347 100 100" style="enable-background:new 157 347 100 100;" xml:space="preserve">
<style type="text/css">
	.st0{fill:#E1ACDA;}
	.st1{fill:#242424;}
</style>
<g id="XMLID_543_">
	<g id="XMLID_501_">
		<circle id="XMLID_502_" class="st0" cx="207" cy="397" r="50"/>
	</g>
	<g id="XMLID_536_">
		<path id="XMLID_534_" class="st1" d="M232.2,392.2l-6.5-3.4v7.7L232.2,392.2z"/>
		<path id="XMLID_533_" class="st1" d="M233.8,421.5v-26.6l-17.5,11.7L233.8,421.5z"/>
		<path id="XMLID_541_" class="st1" d="M207,409.1l15.6-10.4v-28.4h-31.2v28.4L207,409.1z M207,378.4l3.1,6.3l7,1l-5,4.9l1.2,7
			l-6.2-3.3l-6.2,3.3l1.2-7l-5-4.9l7-1L207,378.4z"/>
		<path id="XMLID_530_" class="st1" d="M188.3,388.8l-6.5,3.4l6.5,4.3V388.8z"/>
		<path id="XMLID_529_" class="st1" d="M180.2,394.9v26.6l17.5-14.9L180.2,394.9z"/>
		<path id="XMLID_528_" class="st1" d="M213.6,408.4l-6.6,4.4l-6.6-4.4l-18,15.4h49.3L213.6,408.4z"/>
		<path id="XMLID_493_" class="st1" d="M204.9,391.9l2.1-1.1l2.1,1.1l-0.4-2.3l1.7-1.6l-2.3-0.3l-1-2.1l-1,2.1l-2.3,0.3l1.7,1.6
			L204.9,391.9z"/>
	</g>
</g>
</svg>
