<?xml version="1.0" encoding="utf-8"?>
<!-- Generator: Adobe Illustrator 19.0.0, SVG Export Plug-In . SVG Version: 6.00 Build 0)  -->
<svg version="1.1" id="Layer_1" xmlns="http://www.w3.org/2000/svg" xmlns:xlink="http://www.w3.org/1999/xlink" x="0px" y="0px"
	 viewBox="-286.5 346.5 100 100" style="enable-background:new -286.5 346.5 100 100;" xml:space="preserve">
<style type="text/css">
	.st0{fill:none;enable-background:new    ;}
	.st1{fill:#E1ACDA;}
	.st2{fill:#242424;}
</style>
<path class="st0" d="z"/>
<circle class="st1" cx="-236.5" cy="396.5" r="50"/>
<g>
	<g>
		<g>
			<path class="st2" d="M-208.4,379.2l-17.4,17.3l17.4,17.3c0.3-0.7,0.5-1.4,0.5-2.2v-30.2C-207.9,380.6-208,379.9-208.4,379.2z"/>
		</g>
	</g>
	<g>
		<g>
			<path class="st2" d="M-212.9,376.4h-47.2c-0.8,0-1.5,0.2-2.2,0.5l22.2,22.1c2,2,5.2,2,7.1,0l22.2-22.1
				C-211.4,376.5-212.1,376.4-212.9,376.4z"/>
		</g>
	</g>
	<g>
		<g>
			<path class="st2" d="M-264.6,379.2c-0.3,0.7-0.5,1.4-0.5,2.2v30.2c0,0.8,0.2,1.5,0.5,2.2l17.4-17.3L-264.6,379.2z"/>
		</g>
	</g>
	<g>
		<g>
			<path class="st2" d="M-228.1,398.9l-2.5,2.5c-3.3,3.3-8.6,3.3-11.9,0l-2.5-2.5l-17.4,17.3c0.7,0.3,1.4,0.5,2.2,0.5h47.2
				c0.8,0,1.5-0.2,2.2-0.5L-228.1,398.9z"/>
		</g>
	</g>
</g>
</svg>
