<?xml version="1.0" encoding="utf-8"?>
<!-- Generator: Adobe Illustrator 19.0.0, SVG Export Plug-In . SVG Version: 6.00 Build 0)  -->
<svg version="1.1" id="Layer_1" xmlns="http://www.w3.org/2000/svg" xmlns:xlink="http://www.w3.org/1999/xlink" x="0px" y="0px"
	 viewBox="157 347 100 100" style="enable-background:new 157 347 100 100;" xml:space="preserve">
<style type="text/css">
	.st0{fill:#E1ACDA;}
	.st1{fill:#242424;}
</style>
<g id="XMLID_617_">
	<g id="XMLID_569_">
		<circle id="XMLID_570_" class="st0" cx="207" cy="397.6" r="50"/>
	</g>
	<g id="XMLID_600_">
		<circle id="XMLID_598_" class="st1" cx="207" cy="405.1" r="2.9"/>
		<path id="XMLID_601_" class="st1" d="M223.4,390.7v-6.1c0-9.1-7.4-16.4-16.4-16.4c-9.1,0-16.4,7.4-16.4,16.4v6.1h-5.4v14.5
			c0,12,9.8,21.8,21.8,21.8s21.8-9.8,21.8-21.8v-14.5H223.4z M208.7,411.2v5.4h-3.4v-5.4c-2.7-0.8-4.6-3.2-4.6-6.1
			c0-3.5,2.8-6.3,6.3-6.3s6.3,2.8,6.3,6.3C213.3,408,211.4,410.4,208.7,411.2z M220,390.7h-26v-6.1c0-7.2,5.8-13,13-13
			c7.2,0,13,5.8,13,13V390.7z"/>
	</g>
</g>
</svg>
