<?xml version="1.0" encoding="utf-8"?>
<!-- Generator: Adobe Illustrator 19.0.0, SVG Export Plug-In . SVG Version: 6.00 Build 0)  -->
<svg version="1.1" id="Layer_1" xmlns="http://www.w3.org/2000/svg" xmlns:xlink="http://www.w3.org/1999/xlink" x="0px" y="0px"
	 viewBox="43 297 200 200" style="enable-background:new 43 297 200 200;" xml:space="preserve">
<style type="text/css">
	.st0{fill:#E1ACDA;}
	.st1{clip-path:url(#XMLID_2_);fill:#37104D;}
	.st2{fill:#E1ACDA;stroke:#17022F;stroke-width:3;stroke-miterlimit:10;}
	.st3{fill:#17022F;}
</style>
<g id="XMLID_273_">
	<g id="XMLID_35_">
		<g id="XMLID_36_">
			<circle id="XMLID_37_" class="st0" cx="140.7" cy="394.9" r="95.3"/>
		</g>
	</g>
	<g id="XMLID_31_">
		<defs>
			<circle id="XMLID_275_" cx="140.7" cy="394.9" r="95.3"/>
		</defs>
		<clipPath id="XMLID_2_">
			<use xlink:href="#XMLID_275_"  style="overflow:visible;"/>
		</clipPath>
		<path id="XMLID_32_" class="st1" d="M108.8,411c-8.5-8.5-12.8-18.8-12.8-30.8c0-12,4.3-22.3,12.8-30.8
			c8.5-8.5,18.8-12.8,30.8-12.8c12,0,22.3,4.3,30.8,12.8c8.5,8.5,12.8,18.8,12.8,30.8c0,12-4.3,22.3-12.8,30.8
			c-8.5,8.5-18.8,12.8-30.8,12.8C127.6,423.7,117.3,419.5,108.8,411z M215.8,475.7c-0.2-3.5-0.7-7.4-1.5-11.4
			c-0.7-4.1-1.7-8-2.8-11.5c-1.2-3.6-2.8-7.3-4.7-10.7c-2-3.6-4.4-6.7-7.1-9.3c-2.8-2.7-6.2-4.8-10.2-6.4c-4-1.6-8.4-2.4-13.1-2.4
			c-1.8,0-3.6,0.8-7.1,3c-2.1,1.4-4.6,3-7.4,4.8c-2.4,1.5-5.6,2.9-9.5,4.2c-3.9,1.3-7.8,1.9-11.7,1.9c-3.9,0-7.8-0.6-11.7-1.9
			c-4-1.3-7.2-2.7-9.5-4.2c-2.7-1.8-5.2-3.4-7.4-4.8c-3.4-2.2-5.2-3-7.1-3c-4.7,0-9.1,0.8-13.1,2.4c-4,1.6-7.4,3.7-10.2,6.4
			c-2.7,2.6-5.1,5.7-7.1,9.3c-2,3.5-3.6,7.1-4.7,10.7c-1.1,3.5-2.1,7.4-2.8,11.5c-0.7,4.1-1.2,7.9-1.5,11.4c-0.2,3.5-0.4,7-0.4,10.7
			c0,9.4,3,17.1,8.9,22.7c5.8,5.6,13.6,8.4,23,8.4h87c9.4,0,17.1-2.8,23-8.4c5.9-5.6,8.9-13.3,8.9-22.7
			C216.1,482.7,216,479.1,215.8,475.7z"/>
	</g>
	<circle id="XMLID_274_" class="st2" cx="213.1" cy="464.5" r="29.9"/>
	<path id="XMLID_309_" class="st3" d="M228.6,461.2h-11.4c-0.4,0-0.7-0.3-0.7-0.7v-11.4c0-1.9-1.5-3.4-3.4-3.4
		c-1.9,0-3.4,1.5-3.4,3.4v11.4c0,0.4-0.3,0.7-0.7,0.7h-11.4c-1.9,0-3.4,1.5-3.4,3.4s1.5,3.4,3.4,3.4h11.4c0.4,0,0.7,0.3,0.7,0.7V480
		c0,1.9,1.5,3.4,3.4,3.4c1.9,0,3.4-1.5,3.4-3.4v-11.4c0-0.4,0.3-0.7,0.7-0.7h11.4c1.9,0,3.4-1.5,3.4-3.4S230.5,461.2,228.6,461.2z"
		/>
</g>
</svg>
