<?xml version="1.0" encoding="utf-8"?>
<!-- Generator: Adobe Illustrator 19.0.0, SVG Export Plug-In . SVG Version: 6.00 Build 0)  -->
<svg version="1.1" id="Layer_1" xmlns="http://www.w3.org/2000/svg" xmlns:xlink="http://www.w3.org/1999/xlink" x="0px" y="0px"
	 viewBox="0 0 200 200" style="enable-background:new 0 0 200 200;" xml:space="preserve">
<style type="text/css">
	.st0{fill:#DDACCF;}
	.st1{clip-path:url(#XMLID_2_);fill:#37174E;}
	.st2{fill:#DDACCF;stroke:#1C102E;stroke-width:3;stroke-miterlimit:10;}
	.st3{fill:#1C102E;}
</style>
<g id="XMLID_18_">
	<g id="XMLID_35_">
		<g id="XMLID_36_">
			<circle id="XMLID_37_" class="st0" cx="95.3" cy="97.3" r="95.3"/>
		</g>
	</g>
	<g id="XMLID_31_">
		<defs>
			<circle id="XMLID_275_" cx="95.3" cy="99.3" r="94.1"/>
		</defs>
		<clipPath id="XMLID_2_">
			<use xlink:href="#XMLID_275_"  style="overflow:visible;"/>
		</clipPath>
		<path id="XMLID_32_" class="st1" d="M63.8,115.2c-8.4-8.4-12.6-18.6-12.6-30.4c0-11.8,4.2-22,12.6-30.4s18.6-12.6,30.4-12.6
			c11.8,0,22,4.2,30.4,12.6c8.4,8.4,12.6,18.6,12.6,30.4c0,11.8-4.2,22-12.6,30.4c-8.4,8.4-18.6,12.6-30.4,12.6
			C82.3,127.8,72.1,123.5,63.8,115.2z M169.4,179.1c-0.2-3.5-0.7-7.3-1.4-11.3c-0.7-4-1.7-7.9-2.8-11.3c-1.2-3.6-2.7-7.2-4.7-10.6
			c-2-3.5-4.4-6.6-7-9.2c-2.8-2.7-6.2-4.8-10.1-6.3c-3.9-1.5-8.3-2.3-12.9-2.3c-1.8,0-3.6,0.7-7,3c-2.1,1.4-4.5,2.9-7.3,4.7
			c-2.3,1.5-5.5,2.9-9.4,4.2c-3.8,1.2-7.7,1.9-11.5,1.9s-7.7-0.6-11.5-1.9c-3.9-1.3-7.1-2.7-9.4-4.1c-2.7-1.7-5.2-3.3-7.3-4.7
			c-3.4-2.2-5.2-3-7-3c-4.6,0-9,0.8-12.9,2.3c-3.9,1.6-7.3,3.7-10.1,6.3c-2.7,2.5-5,5.6-7,9.2c-1.9,3.4-3.5,7-4.7,10.6
			c-1.1,3.5-2,7.3-2.8,11.3c-0.7,4-1.2,7.8-1.4,11.3c-0.2,3.4-0.4,7-0.4,10.5c0,9.3,3,16.9,8.8,22.4c5.8,5.5,13.4,8.3,22.7,8.3h86
			c9.3,0,16.9-2.8,22.7-8.3c5.8-5.6,8.8-13.1,8.8-22.4C169.8,186,169.7,182.5,169.4,179.1z"/>
	</g>
	<circle id="XMLID_274_" class="st2" cx="167.7" cy="166.9" r="29.9"/>
	<path id="XMLID_309_" class="st3" d="M183.2,163.6h-11.4c-0.4,0-0.7-0.3-0.7-0.7v-11.4c0-1.9-1.5-3.4-3.4-3.4s-3.4,1.5-3.4,3.4
		v11.4c0,0.4-0.3,0.7-0.7,0.7h-11.4c-1.9,0-3.4,1.5-3.4,3.4s1.5,3.4,3.4,3.4h11.4c0.4,0,0.7,0.3,0.7,0.7v11.4c0,1.9,1.5,3.4,3.4,3.4
		s3.4-1.5,3.4-3.4V171c0-0.4,0.3-0.7,0.7-0.7h11.4c1.9,0,3.4-1.5,3.4-3.4S185,163.6,183.2,163.6z"/>
</g>
</svg>
