<?xml version="1.0" encoding="utf-8"?>
<!-- Generator: Adobe Illustrator 19.0.0, SVG Export Plug-In . SVG Version: 6.00 Build 0)  -->
<svg version="1.1" id="Layer_1" xmlns="http://www.w3.org/2000/svg" xmlns:xlink="http://www.w3.org/1999/xlink" x="0px" y="0px"
	 viewBox="-155 157 200 200" style="enable-background:new -155 157 200 200;" xml:space="preserve">
<style type="text/css">
	.st0{fill:#DDACCF;}
	.st1{clip-path:url(#SVGID_2_);fill:#37174E;}
</style>
<g id="XMLID_18_">
	<g id="XMLID_35_">
		<g id="XMLID_36_">
			<circle id="XMLID_37_" class="st0" cx="-53.7" cy="257.7" r="98.7"/>
		</g>
	</g>
	<g id="XMLID_31_">
		<g>
			<defs>
				<circle id="SVGID_1_" cx="-53.7" cy="259.8" r="97.4"/>
			</defs>
			<clipPath id="SVGID_2_">
				<use xlink:href="#SVGID_1_"  style="overflow:visible;"/>
			</clipPath>
			<path id="XMLID_32_" class="st1" d="M-86.3,276.2c-8.7-8.7-13-19.3-13-31.5s4.3-22.8,13-31.5c8.7-8.7,19.3-13,31.5-13
				s22.8,4.3,31.5,13s13,19.3,13,31.5s-4.3,22.8-13,31.5c-8.7,8.7-19.3,13-31.5,13C-67.1,289.3-77.7,284.8-86.3,276.2z M23,342.4
				c-0.2-3.6-0.7-7.6-1.4-11.7c-0.7-4.1-1.8-8.2-2.9-11.7c-1.2-3.7-2.8-7.5-4.9-11c-2.1-3.6-4.6-6.8-7.2-9.5
				c-2.9-2.8-6.4-5-10.5-6.5c-4-1.6-8.6-2.4-13.4-2.4c-1.9,0-3.7,0.7-7.2,3.1c-2.2,1.4-4.7,3-7.6,4.9c-2.4,1.6-5.7,3-9.7,4.3
				c-3.9,1.2-8,2-11.9,2s-8-0.6-11.9-2c-4-1.3-7.4-2.8-9.7-4.2c-2.8-1.8-5.4-3.4-7.6-4.9c-3.5-2.3-5.4-3.1-7.2-3.1
				c-4.8,0-9.3,0.8-13.4,2.4c-4,1.7-7.6,3.8-10.5,6.5c-2.8,2.6-5.2,5.8-7.2,9.5c-2,3.5-3.6,7.2-4.9,11c-1.1,3.6-2.1,7.6-2.9,11.7
				c-0.7,4.1-1.2,8.1-1.4,11.7c-0.2,3.5-0.4,7.2-0.4,10.9c0,9.6,3.1,17.5,9.1,23.2c6,5.7,13.9,8.6,23.5,8.6h89.1
				c9.6,0,17.5-2.9,23.5-8.6c6-5.8,9.1-13.6,9.1-23.2C23.5,349.5,23.4,345.9,23,342.4z"/>
		</g>
	</g>
</g>
</svg>
