<?xml version="1.0" encoding="utf-8"?>
<!-- Generator: Adobe Illustrator 19.0.0, SVG Export Plug-In . SVG Version: 6.00 Build 0)  -->
<svg version="1.1" id="Layer_1" xmlns="http://www.w3.org/2000/svg" xmlns:xlink="http://www.w3.org/1999/xlink" x="0px" y="0px"
	 viewBox="157 347 100 100" style="enable-background:new 157 347 100 100;" xml:space="preserve">
<style type="text/css">
	.st0{fill:#E1ACDA;}
	.st1{fill:#242424;}
</style>
<g id="XMLID_674_">
	<g id="XMLID_619_">
		<g id="XMLID_626_">
			<circle id="XMLID_627_" class="st0" cx="207" cy="397" r="50"/>
		</g>
	</g>
	<path id="XMLID_653_" class="st1" d="M238.9,389.5c-0.4-1.3-1.6-2.2-2.9-2.3l-18.5-1.7l-7.3-17.1c-0.5-1.3-1.8-2.1-3.1-2.1
		c-1.4,0-2.6,0.8-3.1,2.1l-7.3,17.1l-18.5,1.7c-1.4,0.1-2.5,1-2.9,2.3c-0.4,1.3,0,2.7,1,3.6l14,12.3l-4.1,18.2
		c-0.3,1.3,0.2,2.7,1.3,3.5c0.6,0.4,1.3,0.6,2,0.6c0.6,0,1.2-0.2,1.7-0.5l16-9.6l16,9.6c1.2,0.7,2.6,0.6,3.8-0.2
		c1.1-0.8,1.6-2.2,1.3-3.5l-4.1-18.2l14-12.3C239,392.2,239.3,390.8,238.9,389.5z"/>
</g>
</svg>
