<?xml version="1.0" encoding="utf-8"?>
<!-- Generator: Adobe Illustrator 19.0.0, SVG Export Plug-In . SVG Version: 6.00 Build 0)  -->
<svg version="1.1" id="Layer_1" xmlns="http://www.w3.org/2000/svg" xmlns:xlink="http://www.w3.org/1999/xlink" x="0px" y="0px"
	 viewBox="157 347 100 100" style="enable-background:new 157 347 100 100;" xml:space="preserve">
<style type="text/css">
	.st0{fill:#E1ACDA;}
	.st1{fill:#242424;}
</style>
<g id="XMLID_752_">
	<g id="XMLID_678_">
		<g id="XMLID_679_">
			<circle id="XMLID_680_" class="st0" cx="207" cy="397" r="50"/>
		</g>
	</g>
	<g id="XMLID_739_">
		<g id="XMLID_740_">
			<path id="XMLID_741_" class="st1" d="M232.1,405.9h-1.8v-1.8c0-2.9-2.4-5.3-5.3-5.3h-16.2v-3.6c1.7,0,3.7,0,5.3,0
				c1,0,1.8-0.8,1.8-1.8s-0.8-1.8-1.8-1.8h-1.8v-3.6h5.3c2.9,0,5.3-2.4,5.3-5.3v-10.8c0-2.9-2.4-5.3-5.3-5.3h-21.4
				c-2.9,0-5.3,2.4-5.3,5.3v10.8c0,2.9,2.4,5.3,5.3,5.3h5.3v3.6h-1.8c-1,0-1.8,0.8-1.8,1.8s0.8,1.8,1.8,1.8c1.7,0,3.7,0,5.3,0v3.6
				h-16.2c-2.9,0-5.3,2.4-5.3,5.3v1.8h-1.8c-2.9,0-5.3,2.4-5.3,5.3v3.6c0,2.9,2.4,5.3,5.3,5.3h1.8v3.7h-1.8c-1,0-1.8,0.8-1.8,1.8
				s0.8,1.8,1.8,1.8h7.1c1,0,1.8-0.8,1.8-1.8s-0.8-1.8-1.8-1.8h-1.8v-3.7h1.8c2.9,0,5.3-2.4,5.3-5.3v-3.6c0-2.9-2.4-5.3-5.3-5.3
				h-1.8v-1.8c0-1,0.8-1.8,1.8-1.8h16.2v3.6h-1.8c-2.9,0-5.3,2.4-5.3,5.3v3.6c0,2.9,2.4,5.3,5.3,5.3h1.8v3.7h-1.8
				c-1,0-1.8,0.8-1.8,1.8s0.8,1.8,1.8,1.8h7.1c1,0,1.8-0.8,1.8-1.8s-0.8-1.8-1.8-1.8h-1.8v-3.7h1.8c2.9,0,5.3-2.4,5.3-5.3v-3.6
				c0-2.9-2.4-5.3-5.3-5.3h-1.8v-3.6h16.2c1,0,1.8,0.8,1.8,1.8v1.8h-1.8c-2.9,0-5.3,2.4-5.3,5.3v3.6c0,2.9,2.4,5.3,5.3,5.3h1.8v3.7
				h-1.8c-1,0-1.8,0.8-1.8,1.8s0.8,1.8,1.8,1.8h7.1c1,0,1.8-0.8,1.8-1.8s-0.8-1.8-1.8-1.8h-1.8v-3.7h1.8c2.9,0,5.3-2.4,5.3-5.3v-3.6
				C237.4,408.3,235,405.9,232.1,405.9z M189.1,409.5c1,0,1.8,0.8,1.8,1.8v3.6c0,1-0.8,1.8-1.8,1.8h-7.1c-1,0-1.8-0.8-1.8-1.8v-3.6
				c0-1,0.8-1.8,1.8-1.8H189.1z M196.3,384.5c-1,0-1.8-0.8-1.8-1.8v-10.8c0-1,0.8-1.8,1.8-1.8h21.4c1,0,1.8,0.8,1.8,1.8v10.8
				c0,1-0.8,1.8-1.8,1.8C213.4,384.5,200.6,384.5,196.3,384.5z M210.6,409.5c1,0,1.8,0.8,1.8,1.8v3.6c0,1-0.8,1.8-1.8,1.8h-7.1
				c-1,0-1.8-0.8-1.8-1.8v-3.6c0-1,0.8-1.8,1.8-1.8H210.6z M205.2,391.7v-3.6h3.6v3.6H205.2z M233.8,414.8c0,1-0.8,1.8-1.8,1.8h-7.1
				c-1,0-1.8-0.8-1.8-1.8v-3.6c0-1,0.8-1.8,1.8-1.8h7.1c1,0,1.8,0.8,1.8,1.8V414.8z"/>
		</g>
	</g>
</g>
</svg>
