<?xml version="1.0" encoding="utf-8"?>
<!-- Generator: Adobe Illustrator 19.0.0, SVG Export Plug-In . SVG Version: 6.00 Build 0)  -->
<svg version="1.1" id="Layer_1" xmlns="http://www.w3.org/2000/svg" xmlns:xlink="http://www.w3.org/1999/xlink" x="0px" y="0px"
	 viewBox="157 347 100 100" style="enable-background:new 157 347 100 100;" xml:space="preserve">
<style type="text/css">
	.st0{fill:#E1ACDA;}
	.st1{fill:#242424;}
</style>
<g id="XMLID_914_">
	<g id="XMLID_915_">
		<g id="XMLID_916_">
			<circle id="XMLID_917_" class="st0" cx="207" cy="397" r="50"/>
		</g>
	</g>
	<g id="XMLID_944_">
		<path id="XMLID_946_" class="st1" d="M206.6,395.9c3.9,0,7.2-1.4,9.9-4.1c2.7-2.7,4.1-6.1,4.1-9.9c0-3.9-1.4-7.2-4.1-9.9
			c-2.7-2.7-6.1-4.1-9.9-4.1c-3.9,0-7.2,1.4-9.9,4.1s-4.1,6.1-4.1,9.9c0,3.9,1.4,7.2,4.1,9.9C199.4,394.5,202.8,395.9,206.6,395.9z"
			/>
		<path id="XMLID_945_" class="st1" d="M231.2,412.7c-0.1-1.1-0.2-2.4-0.5-3.7c-0.2-1.3-0.5-2.6-0.9-3.7c-0.4-1.2-0.9-2.3-1.5-3.5
			c-0.7-1.2-1.4-2.2-2.3-3c-0.9-0.9-2-1.6-3.3-2.1c-1.3-0.5-2.7-0.8-4.2-0.8c-0.6,0-1.2,0.2-2.3,1c-0.7,0.4-1.5,1-2.4,1.5
			c-0.8,0.5-1.8,0.9-3.1,1.4c-1.2,0.4-2.5,0.6-3.8,0.6c-1.2,0-2.5-0.2-3.8-0.6c-1.3-0.4-2.3-0.9-3.1-1.4c-0.9-0.6-1.7-1.1-2.4-1.5
			c-1.1-0.7-1.7-1-2.3-1c-1.5,0-2.9,0.3-4.2,0.8c-1.3,0.5-2.4,1.2-3.3,2.1c-0.9,0.8-1.6,1.8-2.3,3c-0.6,1.1-1.1,2.3-1.5,3.5
			c-0.4,1.1-0.7,2.4-0.9,3.7c-0.2,1.3-0.4,2.5-0.5,3.7c-0.1,1.1-0.1,2.3-0.1,3.4c0,3,1,5.5,2.9,7.3c1.9,1.8,4.4,2.7,7.4,2.7h28
			c3,0,5.5-0.9,7.4-2.7c1.9-1.8,2.9-4.3,2.9-7.3C231.3,414.9,231.3,413.8,231.2,412.7z"/>
	</g>
</g>
</svg>
